# xmcd
#
# Track frame offsets:
#	150
#	12435
#	26602
#	42337
#	70430
#	87025
#	109470
#	126415
#	141435
#	156482
#	183875
#	213975
#	229562
#	245007
#	269642
#	290072
#	299655
#	309685
#
# Disc length: 4295
#
# Revision: 2
# Processed by: cddbd v1.5.1PL0 Copyright (c) Steve Scherf et al.
# Submitted via: EasyCDDAExtractor 5.0.7
# Normalized: r1:DSETVAR1
#
DISCID=2410c512
DTITLE=Various Artist - Best Of Blues
DYEAR=1989
DGENRE=Blues
TTITLE0=John Lee Hooker - 1969 Boogie Cillen
TTITLE1=Memphis Slim - 1983 Roll and Tumble
TTITLE2=Screamin' Jay Hawkins - 1988 Tutti Frutti
TTITLE3=Pinetop Perkins - 1976 Pinetop Is Just Top
TTITLE4=T-Bone Walker - 1968 I Hate To See You Go
TTITLE5=Lonnie Brooks - 1975 Sweet Home Chicago
TTITLE6=Luther Johnson - 1972 Things That I Used To Do
TTITLE7=Jay McShann - 1977 Hand's Off
TTITLE8=Cousin Joe - 1971 Take A Lesson From Your Teacher
TTITLE9=Otis Rush - 1974 I Can't Quit My Baby
TTITLE10=Eddy "The Chief" Clearwater - 1989 Somebody Please Help Me
TTITLE11=Buddy Guy and Junior Wells - 1977 Every Day I Have The Blues
TTITLE12=Jimmy Rogers - 1973 Sloppy Drunk
TTITLE13=Pinetop Perkins - 1976 So Many Days
TTITLE14=Magic Slim and The Teardrops - 1978 Highway Is My Home
TTITLE15=Luther Johnson - 1972 Impressions From France
TTITLE16=Mickey Baker - 1974 Hey Little Girl
TTITLE17=Cousin Joe - 1971 Railroad Porter Blues
EXTD=Best Of Blues [CD1] FA 972\n
EXTT0=
EXTT1=
EXTT2=
EXTT3=
EXTT4=
EXTT5=
EXTT6=
EXTT7=
EXTT8=
EXTT9=
EXTT10=
EXTT11=
EXTT12=
EXTT13=
EXTT14=
EXTT15=
EXTT16=
EXTT17=
PLAYORDER=
